<svg version="1.1" xmlns="http://www.w3.org/2000/svg" xmlns:xlink="http://www.w3.org/1999/xlink">

<style type="text/css">
 <![CDATA[
  svg > use:not(:target) {
  display: none;
  }
   ]]>
</style>


  <symbol fill="none" xmlns="http://www.w3.org/2000/svg" viewBox="0 0 39 49" id="abomination">
    <g>
      <path d="M37.114 19.1433C36.4728 19.2671 35.8068 19.62 35.3012 20.041C33.9447 21.1617 32.6437 22.3629 31.355 23.564C30.5472 24.3194 29.6347 24.4804 28.7961 23.8303C28.0253 23.2297 27.0819 22.5053 26.8291 21.6508C26.4407 20.3444 26.3235 18.8399 26.5517 17.4963C27.0881 14.351 27.8527 11.2366 28.6111 8.13467C28.9379 6.7911 29.203 5.44753 28.5618 4.20303C28.1918 3.48481 27.5321 2.65514 26.8415 2.45701C26.3174 2.30841 25.3308 2.93995 24.9177 3.50338C24.2271 4.4445 23.7276 5.57136 23.3268 6.68584C22.5438 8.87766 21.9148 11.119 21.1502 13.317C20.9653 13.8495 20.5213 14.2891 20.0589 14.9763C19.6149 13.8309 19.2018 13.0136 18.9798 12.1468C18.431 9.97356 17.6726 7.81271 18.1351 5.50945C18.4495 3.9306 18.6962 2.39509 17.0067 1.36729C16.871 1.2868 16.8217 1.05772 16.7354 0.896736C16.3654 0.209473 15.8043 -0.112488 15.0274 0.0237263C14.2073 0.166132 13.7942 0.710989 13.64 1.50351C13.5722 1.85643 13.5291 2.29603 13.3009 2.50654C12.3513 3.40432 12.1664 4.53118 12.2959 5.71996C12.6165 8.60523 13.0111 11.4843 13.3256 14.3758C13.3934 14.9763 13.2516 15.5955 13.2084 16.2085C13.0728 16.2642 12.931 16.3199 12.7953 16.3756C11.6361 15.385 10.4769 14.4005 9.33 13.4223C9.50882 13.1313 9.55814 13.0322 9.6198 12.9455C11.1243 10.8713 10.5139 9.30487 8.02281 8.85908C7.77 8.81574 7.52953 8.74144 7.27672 8.71048C5.56257 8.50616 3.76826 9.80639 3.94091 11.3357C4.18755 13.5213 4.36636 15.7751 5.89553 17.5892C6.56763 18.3879 7.16573 19.2423 7.80083 20.0782C7.38771 20.0844 7.07941 19.9358 6.75878 19.8058C5.58723 19.329 4.44036 18.7408 3.23182 18.4065C1.67182 17.9731 0.882569 18.5055 0.12415 20.1896C-0.233478 20.9945 0.24747 22.3443 1.14154 23.0501C2.30692 23.9727 3.45996 24.9076 4.62534 25.8301C6.60463 27.3904 7.54186 29.6875 8.78739 31.7679C9.97743 33.7553 11.3031 35.6562 12.5363 37.6127C12.8446 38.0956 13.2146 38.6652 13.2146 39.1915C13.2084 40.306 13.7387 46.0084 13.7387 47.1291C13.7387 47.4758 13.7449 47.7111 13.7572 47.8845C14.0408 48.2126 14.2998 48.5656 14.5156 48.9432C14.5218 48.9432 14.5279 48.9432 14.5403 48.9432C14.6081 48.9618 14.6759 48.9742 14.7499 48.9866C15.0151 48.9061 15.2802 48.8442 15.5453 48.7823C15.8413 48.6956 16.1311 48.6089 16.4332 48.5346C16.4394 48.5346 16.4456 48.5346 16.4517 48.5284C17.1855 47.5749 18.1351 46.4542 18.7085 45.3274C18.7208 45.3212 18.7393 45.315 18.7517 45.3026C18.7517 45.3026 18.7578 45.3026 18.7578 45.2964C18.9305 43.8662 19.3806 39.0615 19.4977 37.2783L21.3537 42.8012C21.4524 42.8322 21.4277 43.3275 21.4894 43.4513C21.6928 43.8476 21.2057 43.8352 21.3722 44.25C21.4215 44.2996 21.4585 44.3615 21.4832 44.4482C21.5695 44.733 21.6682 45.0178 21.773 45.2964C21.773 45.2964 21.773 45.3026 21.7792 45.3026C21.9888 45.8413 22.2231 46.3675 22.4513 46.8938C22.7102 46.8505 22.9692 46.801 23.0309 46.7948C23.3947 46.7452 23.9866 46.157 24.4182 45.5131C24.7389 45.767 24.9793 46.2499 25.2075 46.5471C25.4171 46.8257 25.6268 47.1105 25.8364 47.3892C26.2125 47.6182 26.5825 47.8535 26.9586 48.0888C27.2793 47.6987 27.5876 47.3025 27.9144 46.9186C27.9144 46.9124 27.9205 46.9124 27.9267 46.9062C28.0438 45.7174 28.2103 44.6153 28.0993 43.3399C27.8342 40.3679 28.0932 41.6496 27.68 38.69C27.5506 37.7799 27.7972 37.105 28.4076 36.4301C29.2524 35.4952 28.8886 34.5231 29.5175 33.4334C30.4917 31.7431 31.7373 30.3995 33.3959 29.3965C34.7895 28.5544 36.1521 27.6443 37.5272 26.7651C38.1684 26.3564 38.3781 25.762 38.1499 25.0624C37.817 24.0594 37.8848 23.1616 38.5507 22.2886C38.7789 21.9914 38.8282 21.5456 38.9268 21.1555C39.2536 19.9048 38.4151 18.8956 37.114 19.1433Z" fill="black"></path>
    </g>
    <defs>
      <clipPath id="clip0">
        <rect width="39" height="49" fill="white"></rect>
      </clipPath>
    </defs>
  </symbol>
  <symbol fill="none" xmlns="http://www.w3.org/2000/svg" viewBox="0 0 43 49" id="assassin">
    <path d="M35.09 14.49C32.59 0.37 21.35 0 21.35 0C21.35 0 10.12 0.37 7.62 14.49C5.12 28.61 0 29.85 0 29.85C0 29.85 3.74 43.28 16.2 48.7C16.2 48.7 9.83 38.31 9.83 30.54C9.83 26.33 10.97 19.35 21.36 19.35C31.75 19.35 32.89 26.32 32.89 30.54C32.89 38.31 26.52 48.7 26.52 48.7C38.98 43.28 42.72 29.84 42.72 29.84C42.72 29.84 37.59 28.6 35.09 14.49Z" fill="#010101"></path>
    <path d="M21.35 22.49C21.35 22.49 14.32 22.3 12.54 27.27C14.51 32.89 16.96 39.45 21.35 39.45C25.75 39.45 28.19 32.89 30.16 27.27C28.39 22.3 21.35 22.49 21.35 22.49Z" fill="#010101"></path>
  </symbol>
  <symbol fill="none" xmlns="http://www.w3.org/2000/svg" viewBox="0 0 36 38" id="brawler">
    <path d="M19.67 34.67L33 37.17L33.5 31.5L17.5 30.75L19.67 34.67Z" fill="#010101"></path>
    <path d="M22.42 0L0 11L3.42 27H7.91L7.5 15.67L10.95 27H15.5V12.83L18.99 27H23.71L24.92 9.25L27.18 27H33.92L35.83 3.58L22.42 0Z" fill="#010101"></path>
  </symbol>
  <symbol fill="none" xmlns="http://www.w3.org/2000/svg" viewBox="0 0 51 40" id="cannoneer">
    <g filter="url(#filter0_d)">
      <path d="M47.2363 6.16727L43.4725 0C43.4725 0 18.2059 8.72727 8.08181 15.6218C2.12986 19.6655 1.16705 23.3018 2.71339 27.52C1.1087 28.3345 0 29.9636 0 31.8836C0 34.5891 2.18821 36.7709 4.9016 36.7709C5.98112 36.7709 6.97311 36.4218 7.79005 35.84C10.591 38.8655 13.9462 39.7964 19.373 37.2945C18.1768 35.4036 17.4474 33.1636 17.4474 30.7782C17.4474 24.0873 22.9033 18.6473 29.6138 18.6473C33.4067 18.6473 36.7912 20.3636 39.0086 23.0982C45.6608 17.4255 51 12.3636 51 12.3636L47.2363 6.16727Z" fill="black"></path>
      <path d="M29.6138 21.5564C24.508 21.5564 20.365 25.6873 20.365 30.7782C20.365 35.8691 24.508 40 29.6138 40C34.7197 40 38.8627 35.8691 38.8627 30.7782C38.8627 25.6873 34.7197 21.5564 29.6138 21.5564ZM29.6138 32.9891C28.3884 32.9891 27.3965 32 27.3965 30.7782C27.3965 29.5564 28.3884 28.5673 29.6138 28.5673C30.8392 28.5673 31.8312 29.5564 31.8312 30.7782C31.8312 32 30.8392 32.9891 29.6138 32.9891Z" fill="black"></path>
    </g>
    <defs>
      <filter id="filter0_d" x="-4" y="0" width="59" height="48" filterUnits="userSpaceOnUse" color-interpolation-filters="sRGB">
        <feComposite in2="hardAlpha" operator="out"></feComposite>
        <feColorMatrix type="matrix" values="0 0 0 0 0 0 0 0 0 0 0 0 0 0 0 0 0 0 0.25 0"></feColorMatrix>
        <feBlend mode="normal" in2="BackgroundImageFix" result="effect1_dropShadow"></feBlend>
        <feBlend mode="normal" in="SourceGraphic" in2="effect1_dropShadow" result="shape"></feBlend>
      </filter>
    </defs>
  </symbol>
  <symbol fill="none" xmlns="http://www.w3.org/2000/svg" viewBox="0 0 46 49" id="caretaker">
    <path d="M13.6014 22.7603C12.5754 22.6688 10.8127 24.33 10.6023 26.5537C10.3918 28.7905 11.8256 30.7395 12.8516 30.8311C13.8776 30.9226 14.1144 29.1175 14.3249 26.8938C14.5222 24.6701 14.6274 22.8519 13.6014 22.7603Z" fill="black"></path>
    <path d="M32.3986 22.7603C31.3726 22.8518 31.4647 24.67 31.6751 26.9068C31.8856 29.1436 32.1224 30.9356 33.1484 30.8441C34.1744 30.7525 35.5951 28.7904 35.3977 26.5667C35.1873 24.3299 33.4246 22.6556 32.3986 22.7603Z" fill="black"></path>
    <path d="M44.5534 4.53897C44.1061 4.55206 41.2254 7.54752 39.5285 9.75814C39.3312 7.37747 38.0684 3.92419 37.6869 3.85878C37.3054 3.79338 35.5296 4.78751 33.767 7.0897C29.1499 2.26295 23.0069 0 23.0069 0C23.0069 0 16.8508 2.26295 12.2337 7.0897C10.471 4.78751 8.6952 3.79338 8.31373 3.85878C7.93226 3.92419 6.66946 7.37747 6.47215 9.75814C4.77527 7.54752 1.89451 4.55206 1.44727 4.53897C1.00003 4.52589 -1.30194 11.0139 1.02634 18.5745C3.34147 26.1351 3.10469 25.9781 3.39408 29.8107C3.69663 33.6434 4.51218 37.8292 10.5762 40.9816C14.6672 43.1006 17.8505 49 22.9937 49C28.137 49 31.3335 43.0876 35.4112 40.9816C41.4884 37.8292 42.304 33.6434 42.5934 29.8107C42.8959 25.9781 42.646 26.1351 44.9611 18.5745C47.3026 11.0139 45.0006 4.52589 44.5534 4.53897ZM20.5339 42.9306C20.1393 43.323 19.2448 43.0876 18.5608 42.3943C17.8636 41.701 17.6269 40.8246 18.0215 40.4322C18.4161 40.0398 19.3106 40.2752 19.9946 40.9685C20.6918 41.6618 20.9285 42.5382 20.5339 42.9306ZM19.771 33.3948C18.9949 34.4805 11.1682 32.3091 7.98487 29.2483C4.81473 26.1874 6.68261 19.3986 7.98487 18.9146C9.28713 18.4437 14.5356 20.7328 16.2851 22.9303C19.1922 26.6191 20.1788 32.8193 19.771 33.3948ZM27.4004 42.4074C26.7032 43.1006 25.8219 43.3361 25.4273 42.9437C25.0326 42.5513 25.2694 41.6618 25.9666 40.9816C26.6637 40.2883 27.5451 40.0529 27.9397 40.4453C28.3343 40.8377 28.0975 41.7141 27.4004 42.4074ZM38.0158 29.2483C34.8456 32.3091 27.0057 34.4674 26.2297 33.3948C25.8087 32.8062 26.7953 26.606 29.7155 22.9434C31.465 20.7459 36.7135 18.4437 38.0158 18.9277C39.318 19.3986 41.1859 26.1874 38.0158 29.2483Z" fill="black"></path>
    <rect x="17" y="38" width="13" height="6" fill="black"></rect>
  </symbol>
  <symbol fill="none" xmlns="http://www.w3.org/2000/svg" viewBox="0 0 41 45" id="cavalier">
    <g>
      <path d="M40.2807 20.6271C39.9013 19.95 39.3397 19.4163 38.7435 18.9419C37.8518 17.9239 36.9059 16.9454 36.0733 15.8829C34.9451 14.4399 34.2208 12.8141 33.5114 11.1437C33.4129 10.9856 33.3094 10.8275 33.2109 10.6693C32.6886 9.80452 32.1861 8.90017 31.7575 7.96617C31.053 7.16066 30.3435 6.3502 29.6341 5.51504C30.58 4.26477 31.654 2.84647 33.0778 0.963646C33.0631 0.933996 33.0532 0.899403 33.0384 0.869752C32.9744 0.701731 32.9054 0.53371 32.8414 0.365689C32.8315 0.34098 32.8266 0.321213 32.8217 0.311329C32.8167 0.301446 32.8118 0.291562 32.8069 0.276737C32.7724 0.207551 32.7428 0.138366 32.7083 0.0691812C31.6836 0.024705 30.984 -0.0543637 30.3682 0.128483C27.5649 0.968588 24.7665 1.83834 21.9928 2.77234C20.9729 2.88106 19.958 2.98978 18.9382 3.10344C17.6425 3.24676 16.3616 3.43949 15.12 3.80518V3.80024C14.8983 3.8546 14.6766 3.90896 14.4549 3.95838C14.2726 4.01274 14.0903 4.06709 13.913 4.1264C13.8342 4.15111 13.7603 4.15111 13.6864 4.14122H13.6814C12.6173 4.39325 11.5629 4.70459 10.5283 5.07522C9.88787 5.16912 9.3213 5.41126 8.81877 5.74731C8.41971 5.91533 8.02558 6.08829 7.63144 6.27608C7.56739 6.30573 7.52798 6.3502 7.48857 6.39468C6.50815 6.87898 5.56715 7.42752 4.69513 8.10454C4.54733 8.2182 4.40938 8.34175 4.27143 8.46035C3.77383 8.98912 3.31565 9.54261 2.92644 10.1406C2.92644 10.1653 2.93137 10.19 2.93137 10.2147C2.93629 10.2246 2.93629 10.2345 2.93629 10.2394C2.93629 10.2443 2.93629 10.2493 2.93629 10.2493C2.94615 10.2987 2.96093 10.3432 2.97571 10.3926C2.99049 10.3975 3.00034 10.4074 3.01512 10.4124C3.35999 10.3531 3.70979 10.2987 4.05466 10.2443C4.1729 10.2147 4.28621 10.185 4.40445 10.1653C5.05478 10.0467 5.71495 9.99725 6.3702 9.95277C6.58698 9.93795 6.80375 9.92312 7.02546 9.9083C7.11414 9.91324 7.20282 9.91818 7.2915 9.92807C7.27672 10.0022 7.22252 10.0664 7.11906 10.0862C7.07965 10.0911 7.04516 10.0961 7.00575 10.101C4.4685 11.6182 2.26134 13.6394 0.522212 16.0262C0.482798 16.0608 0.443385 16.0954 0.403971 16.135C0.359631 16.1794 0.339924 16.2289 0.334997 16.2783C0.320217 16.303 0.30051 16.3228 0.28573 16.3475C0.206903 16.4512 0.118223 16.5451 0.0393953 16.6539C-0.0886989 16.8367 0.123149 17.069 0.315291 17.0146C1.30556 16.7379 2.29582 16.471 3.29102 16.2091C3.43389 16.1844 3.57677 16.1498 3.71964 16.13C3.43389 16.7823 3.1777 17.4445 2.97078 18.1216C2.86732 18.3884 2.76879 18.6553 2.68503 18.9271C2.41406 19.5003 2.17266 20.0835 1.96081 20.6814C1.65043 21.5808 1.40409 22.5 1.21688 23.4291C1.11834 23.9282 1.04937 24.4322 1.02966 24.9363C0.881861 25.5787 0.788254 26.236 0.743913 26.8933C0.738987 26.9229 0.73406 26.9575 0.73406 26.9871C0.73406 26.997 0.738987 27.0069 0.738987 27.0168C0.729133 27.1996 0.714353 27.3825 0.714353 27.5653C0.714353 27.7383 0.931128 27.8964 1.08386 27.7778C1.47799 27.4764 1.87705 27.1749 2.27612 26.8735C2.3648 26.8241 2.45348 26.7747 2.54216 26.7203C2.52738 26.9278 2.50767 27.1305 2.47811 27.3331C2.47319 28.3264 2.55694 29.3147 2.63084 30.229C2.79835 32.2798 3.26638 34.3603 4.53255 35.9911C4.57196 35.9911 4.60645 35.996 4.64586 36.0109C6.16328 36.5891 7.64622 37.2513 9.12916 37.9184L9.12423 37.9135C9.12916 37.9184 9.13408 37.9184 9.13408 37.9233C9.65631 38.1605 10.1835 38.3928 10.7106 38.6251C10.5924 38.4076 10.4643 38.1902 10.351 37.9678C9.47402 36.2481 8.61678 34.2071 8.73502 32.2205C8.09455 28.5982 8.22757 24.8375 9.02569 21.2547C9.4691 19.2582 10.0702 17.2815 10.9028 15.4085C11.4743 14.1138 12.2281 12.6708 13.3563 11.7417C13.3908 11.6873 13.4203 11.633 13.4548 11.5836C13.7159 11.2179 13.9918 10.867 14.2776 10.526C14.7505 10.269 15.2186 10.0121 15.6915 9.7551C15.5684 9.93795 15.4501 10.1257 15.3368 10.3135C14.8096 11.0795 14.3367 11.8801 13.9327 12.7202C13.6026 13.2539 13.2774 13.7975 12.9769 14.3559C12.903 14.5931 12.8242 14.8303 12.7601 15.0725C12.6567 15.2751 12.568 15.4876 12.4744 15.6902C12.4744 15.7742 12.4596 15.8582 12.4202 15.9472C11.3363 18.4823 10.5776 21.1954 10.3017 23.943C10.1785 25.1735 10.1391 26.4287 10.2229 27.6741C10.3116 28.5636 10.4692 29.4432 10.7205 30.2982C12.3561 35.8231 17.0464 40.1768 21.9238 42.9244C22.3475 43.0233 22.7663 43.1172 23.19 43.2111C25.402 43.6855 27.5944 44.1451 29.6045 45C30.0381 42.6378 30.3583 40.2658 30.1859 37.8542C30.0282 35.7045 29.4518 33.7673 28.3679 31.9141C27.9097 31.1333 27.4171 30.3723 26.9342 29.6063C26.3578 28.8057 25.7814 28.0052 25.2247 27.1947C24.3576 25.9296 23.9043 24.3779 23.2589 22.9596C24.7961 22.8014 26.4219 22.2578 27.8408 22.5988C28.698 22.8014 29.6341 23.2067 30.4224 23.7453C30.511 23.77 30.5997 23.7947 30.6884 23.8195C31.521 24.2494 32.3832 24.6052 33.2995 24.9462C34.1075 25.2476 34.8219 25.6282 35.3589 26.3249C35.8565 26.9773 36.3689 27.343 37.2015 27.4121C38.6105 27.5357 40.5664 27.3182 40.8522 25.6133C41.1231 24.0369 41.0739 22.0404 40.2807 20.6271Z" fill="black"></path>
    </g>
    <defs>
      <clipPath id="clip0">
        <rect width="41" height="45" fill="white"></rect>
      </clipPath>
    </defs>
  </symbol>
  <symbol fill="none" xmlns="http://www.w3.org/2000/svg" viewBox="0 0 55 69" id="cruel">
    <g>
      <path d="M42.4899 18.6366L35.6028 13.0886L32.4124 21.3369L34.9843 22.3412C34.992 22.3701 34.9997 22.399 35.0075 22.4279C35.2476 23.3239 35.7303 25.1255 36.6932 28.7191C37.1011 30.2413 37.2022 31.505 37.0891 32.5473C37.0007 33.3351 36.8036 33.9868 36.4921 34.5969C36.0209 35.4976 35.285 36.335 34.0838 37.1319C33.4881 37.529 32.7638 37.9089 31.9303 38.2665L28.1561 24.1811L30.3231 20.8228L20.6501 7.72942L18.8197 23.9051L22.3755 25.73L26.1497 39.8154C25.4495 39.8998 24.8019 39.9494 24.2185 39.9302C23.2117 39.9108 22.3576 39.7679 21.6519 39.5233C20.5836 39.159 19.7978 38.6158 19.0695 37.7473C18.3508 36.8763 17.7203 35.6409 17.2608 33.926C16.2979 30.3324 15.8151 28.5308 15.5751 27.6348C15.5647 27.5963 15.5596 27.577 15.5518 27.5481L17.2769 25.3924L10.3828 19.8566L7.18979 28.0952L9.76161 29.0996C9.76935 29.1285 9.7771 29.1574 9.78484 29.1863C10.0249 30.0823 10.5077 31.8839 11.4706 35.4775C12.0282 37.5585 12.8457 39.415 13.9996 40.9852C14.8613 42.1586 15.9188 43.1763 17.1295 43.9568C18.9518 45.131 21.0914 45.7555 23.346 45.8846C24.7314 45.9677 26.191 45.8657 27.6967 45.6275L29.5552 52.6243C29.9837 54.2236 31.6206 55.1687 33.2199 54.7402C34.8192 54.3116 35.7643 52.6747 35.3357 51.0754L33.4799 44.0882C34.6506 43.6403 35.7332 43.1333 36.7297 42.5359C38.0471 41.7492 39.2121 40.8175 40.1688 39.7247C41.6125 38.0988 42.5706 36.0866 42.9239 33.9371C43.2869 31.7849 43.0915 29.5139 42.4668 27.1824C41.5039 23.5888 41.0211 21.7872 40.781 20.8912C40.7707 20.8527 40.7655 20.8334 40.7578 20.8045L42.4899 18.6366Z" fill="black"></path>
    </g>
    <defs>
      <clipPath id="clip0">
        <rect width="39.9074" height="59.9156" fill="white" transform="translate(0 10.3289) rotate(-15)"></rect>
      </clipPath>
    </defs>
  </symbol>
  <symbol fill="none" xmlns="http://www.w3.org/2000/svg" viewBox="0 0 51 44" id="dawnbringer">
    <path d="M30.3261 14.4672C28.0829 12.2448 26.4113 9.43467 25.3113 6.09033C24.2113 9.43467 22.5505 12.2341 20.2965 14.4672C18.0533 16.6897 15.2278 18.3458 11.8414 19.4356C15.217 20.5255 18.0425 22.1709 20.2965 24.4041C22.5397 26.6265 24.2113 29.4366 25.3113 32.781C26.4113 29.4366 28.0721 26.6372 30.3261 24.4041C32.5693 22.1816 35.3948 20.5255 38.7704 19.4356C35.4056 18.3351 32.5693 16.6897 30.3261 14.4672Z" fill="black"></path>
    <path d="M47.3656 21.5299C47.344 21.423 47.3225 21.3162 47.3117 21.2093C48.2499 22.0962 49.5117 23.0471 51 23.6561C50.1049 16.5935 45.597 9.77659 43.4508 7.23361C43.0734 6.73142 42.6851 6.23992 42.2969 5.75911C41.8332 5.18213 41.6714 4.66926 41.8547 3.94269C42.0812 3.05585 42.189 2.12628 42.2322 1.20738C42.2538 0.812045 42.0057 0.406022 41.8871 0C41.7037 0.0641088 41.5096 0.117533 41.3263 0.181642C39.9998 0.427392 37.5625 2.24381 36.7105 3.33366C36.6889 3.36571 36.6566 3.39777 36.635 3.42982C36.635 3.44051 36.6242 3.44051 36.6134 3.45119C36.5056 3.60078 36.387 3.76105 36.2683 3.93201C34.5967 6.28266 32.8173 8.56921 31.081 10.8771C31.5124 11.3686 31.9545 11.8494 32.4722 12.2555C32.8712 12.576 33.3242 12.8218 33.7771 13.0355C34.1761 12.4585 34.6399 11.9029 35.2546 11.3473C36.9478 9.80865 37.6703 9.02866 38.1017 11.2725C38.2527 12.0845 38.1772 12.982 38.037 13.8048C37.8645 14.7557 37.6703 15.7067 37.4546 16.6469C38.3174 17.0209 39.2341 17.3521 40.2155 17.6299C41.0243 17.865 41.5743 18.5916 41.5743 19.425C41.5743 20.2584 41.0243 20.9849 40.2155 21.22C38.4037 21.7436 36.7968 22.4274 35.3624 23.2501C34.8124 24.5537 34.1654 25.8252 33.4104 27.0539C31.7281 29.7892 29.5819 32.2467 27.6623 34.8538C27.4466 35.153 27.3388 35.5376 27.177 35.8796C27.5868 35.8582 28.0505 35.9543 28.4064 35.8048C29.2908 35.4308 30.1212 34.9393 31.1888 34.6401C31.0486 34.9286 30.9731 35.2705 30.7682 35.5056C29.3878 37.0549 27.9966 38.6042 26.5515 40.1107C26.4976 40.1642 26.4329 40.2069 26.3466 40.2496C26.1848 40.4206 26.023 40.5809 25.8505 40.7411C25.7427 40.8373 25.6348 40.9335 25.5162 41.0296C25.4083 40.9335 25.3005 40.8373 25.1819 40.7411C25.0093 40.5916 24.8475 40.4206 24.6858 40.2496C24.5995 40.2069 24.524 40.1642 24.4809 40.1107C23.0357 38.6149 21.6445 37.0656 20.2641 35.5056C20.0592 35.2705 19.9837 34.9286 19.8435 34.6401C20.9112 34.95 21.7416 35.4308 22.6259 35.8048C22.9818 35.9543 23.4455 35.8582 23.8554 35.8796C23.6936 35.5376 23.5965 35.153 23.3701 34.8538C21.4504 32.2574 19.3151 29.7999 17.6219 27.0539C16.9317 25.9213 16.3278 24.7567 15.8101 23.56C14.2464 22.5877 12.4777 21.797 10.4502 21.22C9.64136 20.9849 9.09135 20.2584 9.09135 19.425C9.09135 18.5916 9.64136 17.865 10.4502 17.6299C11.561 17.3094 12.5855 16.9247 13.5454 16.4866C13.3405 15.5891 13.1571 14.7023 12.9953 13.7941C12.8444 12.9713 12.7797 12.0738 12.9306 11.2618C13.3512 9.01797 14.0738 9.79796 15.7778 11.3366C16.3925 11.8922 16.8562 12.4585 17.2552 13.0248C17.7082 12.8111 18.1611 12.5653 18.5602 12.2448C19.0778 11.8388 19.52 11.3579 19.9514 10.8664C18.2043 8.55852 16.4356 6.28266 14.764 3.92132C14.5699 3.64352 14.3973 3.39777 14.2248 3.21612C13.3297 2.14764 11.1081 0.502186 9.80313 0.203011C9.57665 0.138902 9.3394 0.0854784 9.1237 0C9.00508 0.406022 8.75703 0.812045 8.7786 1.20738C8.83252 2.12628 8.94037 3.05585 9.16684 3.94269C9.35018 4.67994 9.18841 5.18213 8.72468 5.75911C8.32565 6.25061 7.93741 6.75279 7.54916 7.25498V7.24429C5.40305 9.78728 0.895115 16.6042 0 23.6668C1.49905 23.0685 2.76084 22.0962 3.69909 21.2093C3.67752 21.3162 3.66674 21.4337 3.63438 21.5406C3.11673 23.6882 3.15986 25.8358 3.40791 27.9728L3.39712 27.9835C3.42948 28.2292 3.46183 28.475 3.50497 28.7207C3.54811 29.084 3.60203 29.4473 3.65595 29.8106C3.67752 29.9709 3.7638 30.1204 3.85007 30.2593C4.68048 33.0695 6.75111 36.3711 12.1542 40.645C12.1434 40.6236 12.1326 40.6022 12.1218 40.5809C12.3914 40.8159 12.6395 41.0724 12.9306 41.2967C13.0493 41.2433 13.1571 41.1899 13.2757 41.1365C12.5855 38.9675 11.9061 36.7984 11.2159 34.6401C11.3885 34.544 11.561 34.4478 11.7336 34.3409C13.6963 37.696 15.8209 40.9121 19.3798 42.7606C20.1778 42.8674 20.9543 43.0811 21.7308 43.2841C22.723 43.5512 23.7367 43.7649 24.7505 43.9573C24.8368 43.9679 24.9122 43.9786 24.9985 44C25.1064 43.9786 25.2142 43.9466 25.3113 43.9145C25.3652 43.9252 25.4191 43.9252 25.4838 43.9359C25.7103 43.9573 25.9368 43.9573 26.1632 43.9679C26.1848 43.9679 26.2064 43.9573 26.228 43.9573C27.2417 43.7649 28.2554 43.5512 29.2476 43.2841C30.0241 43.0811 30.8006 42.8674 31.5986 42.7606C35.1683 40.9228 37.2821 37.7067 39.2449 34.3409C39.4174 34.4371 39.59 34.5333 39.7625 34.6401C39.0723 36.8091 38.3929 38.9781 37.7027 41.1365C37.8213 41.1899 37.9292 41.2433 38.0478 41.2967C38.3282 41.0724 38.5762 40.8266 38.8351 40.6022C38.8243 40.6236 38.8243 40.6343 38.8135 40.6557C44.195 36.3924 46.2656 33.1015 47.1068 30.3021C47.2146 30.1418 47.3009 29.9815 47.3225 29.8213C47.4088 29.2657 47.4842 28.7207 47.549 28.1651C47.5597 28.101 47.5705 28.0476 47.5705 27.9835C47.8401 25.8252 47.8833 23.6882 47.3656 21.5299Z" fill="black"></path>
  </symbol>
  <symbol fill="none" xmlns="http://www.w3.org/2000/svg" viewBox="0 0 43 50" id="forgotten">
    <g>
      <path d="M42.4886 26.2426C42.5584 24.9278 42.4731 23.6206 42.2016 22.3134C41.4572 18.7567 39.5495 15.5571 37.2619 12.7451C36.0909 11.3011 34.8191 9.56832 33.0355 8.83873C32.7641 8.72473 32.5858 8.93753 32.578 9.16553C32.4927 9.24913 32.4307 9.37072 32.4539 9.52272C32.6556 10.9363 32.7719 12.3651 32.8107 13.7939C31.5079 13.0643 30.2438 12.2967 29.0496 11.3999C27.0489 9.88752 24.6604 7.94194 24.0245 5.41876C23.6833 4.53716 23.4507 3.61757 23.3189 2.68278C23.0242 1.81639 22.8691 0.911993 22.8846 0C21.5663 0.782794 20.3953 1.77079 19.2787 2.81958C18.4877 3.96717 17.8983 5.27436 17.464 6.58155C17.4408 6.64995 17.4253 6.72595 17.402 6.79435C16.6343 8.68673 15.9906 10.6247 15.1686 12.4943C14.4242 14.1891 13.4006 15.8079 11.8651 16.9099C11.6945 17.0315 11.5084 17.1531 11.3068 17.2519C11.2292 17.0923 11.1517 16.9327 11.0819 16.7731C11.0664 16.7351 11.0586 16.6971 11.0431 16.6591C10.826 16.0131 10.6476 15.3443 10.5236 14.6755C10.3452 13.7255 10.2987 12.7527 10.3762 11.7951C10.5313 11.2555 10.7174 10.7235 10.9656 10.2143C10.9811 10.1839 10.9733 10.1611 10.9811 10.1383C10.9656 10.1231 10.9501 10.1079 10.9423 10.0927C10.857 10.0775 10.7795 10.0547 10.7019 10.0167C10.6864 10.0091 10.6786 10.0015 10.6631 9.99392C10.5546 10.0471 10.446 10.1079 10.3374 10.1611C9.78685 10.4347 9.19749 10.6931 8.67793 11.0275C8.18162 11.3467 7.71634 11.7723 7.19677 12.0687C6.89434 12.3195 6.5919 12.5703 6.29722 12.8287C5.73113 13.5583 5.21932 14.3335 4.75403 15.1391C4.18794 16.1119 3.70714 17.1911 3.49777 18.2855C2.49741 23.5978 3.50552 28.6062 6.30498 33.2269C7.12698 34.5797 8.08081 35.8565 9.05016 37.1257C9.63951 37.6881 10.2676 38.2125 10.9268 38.6837C10.9346 38.6913 10.9501 38.6989 10.9578 38.6989C13.0671 40.7281 15.6882 42.2025 18.635 43.0081C20.31 43.4641 22.0548 43.7985 23.8074 43.9505C22.5822 44.1632 21.3337 44.3076 20.0774 44.3C18.5342 44.3 16.96 44.148 15.4478 43.8212C14.5793 43.6312 13.4859 43.3577 12.7181 42.7801C12.6328 42.7497 12.5475 42.7269 12.4622 42.6965C10.8493 42.0429 9.09668 41.4729 7.79389 40.4089C4.78505 37.9617 3.08676 34.6101 2.01661 30.9698C1.71418 29.9362 1.44276 28.895 1.1791 27.8538C0.992987 27.5574 0.830137 27.2458 0.659533 26.9418C0.550967 27.0178 0.4424 27.0786 0.326079 27.1318C0.186494 28.7886 0.01589 30.4454 0.00813528 32.1021C0.000380549 34.4581 0.473419 36.8369 1.24889 39.0637C1.79948 40.6369 2.54393 42.1417 3.43573 43.5476C3.49777 43.6085 3.55205 43.6693 3.62184 43.73C5.56052 45.5312 7.68532 47.0284 10.1979 47.9328C11.6092 48.4344 13.0516 48.8676 14.5017 49.2628C15.5796 49.5592 16.6963 49.9392 17.7975 49.9468C19.9378 49.962 22.0704 50.1596 24.2417 49.6884C26.9558 49.1032 29.6467 48.5484 32.1127 47.2716C33.4388 46.5876 34.7881 45.8808 35.9513 44.9688C37.859 43.4716 39.6581 41.8301 40.9066 39.7021C42 37.8401 42.8763 35.9173 42.9694 33.7285C43.0702 31.2054 42.9383 28.705 42.4886 26.2426ZM31.9266 32.9989C31.1899 33.5461 30.4455 34.0857 29.639 34.5037C28.1501 35.2713 26.5991 35.9629 25.0094 36.5253C22.3107 37.4753 19.6199 37.0117 17.0143 36.0769C16.0372 35.7273 15.1376 35.2713 14.3234 34.7013C14.2691 34.6709 14.2148 34.6405 14.1683 34.6101C12.5243 33.6449 10.9888 32.3833 10.0738 30.7266C9.96521 30.5974 9.8644 30.4682 9.76359 30.3314C9.73257 30.301 9.6938 30.2706 9.66278 30.2326C9.6085 30.1262 9.54646 30.0274 9.49218 29.921C9.70931 29.5942 9.9497 29.2826 10.1823 28.9634C10.7097 28.2794 11.2525 27.603 11.8186 26.9494C12.9275 25.6802 14.1605 24.4946 15.5874 23.575C16.9677 22.6782 18.542 22.0094 20.1937 21.8042C21.4577 21.6522 22.745 21.789 24.0168 21.979C25.5445 22.4426 26.9713 23.2102 28.2121 24.2438C29.1349 25.019 29.9492 25.9462 30.7944 26.805C31.0193 27.033 31.2442 27.2686 31.4536 27.5118C31.2365 26.0754 30.8254 24.677 30.3136 23.309C29.9414 22.3134 29.4296 21.409 28.8402 20.5426C28.5688 20.2842 28.2896 20.041 28.0105 19.7902C27.3901 19.1214 26.7077 18.5135 25.9865 17.9587C25.0327 17.2291 24.0245 16.5603 22.9854 15.9523C23.063 15.9599 23.1328 15.9675 23.2103 15.9751C26.033 16.7655 28.6929 18.0803 31.0271 19.8206C31.6087 20.4134 32.1282 21.0746 32.5392 21.8194C32.8494 22.283 33.1364 22.7542 33.4155 23.2254C34.5245 25.1558 35.0052 27.2914 35.1914 29.4878C34.1212 30.6962 33.0355 31.8589 31.9266 32.9989Z" fill="black"></path>
      <path d="M15.5638 33.3181C17.3784 34.3213 19.4179 35.0965 21.4729 35.1345C23.1324 35.1649 24.6601 34.6557 26.1102 33.9489C26.3118 33.5233 26.4437 33.0673 26.5212 32.5809C26.8857 30.2934 26.1102 28.3858 24.1638 27.0786C22.1553 25.7334 20.0228 25.741 17.9212 26.9418C15.9748 28.0514 14.8271 30.6353 15.3932 32.7861C15.4319 32.9685 15.5017 33.1433 15.5638 33.3181Z" fill="black"></path>
    </g>
    <defs>
      <clipPath id="clip0">
        <rect width="43" height="50" fill="white"></rect>
      </clipPath>
    </defs>
  </symbol>
  <symbol fill="none" xmlns="http://www.w3.org/2000/svg" viewBox="0 0 48 48" id="draconic">
    <g>
      <path d="M47.8 21.4C46.72 4.7 29.78 0 29.78 0C29.78 0 32.98 4.58 32.07 12.24C31.6 16.26 29.78 18.75 28.15 20.21C27.94 20.21 27.73 20.2 27.51 20.16C26.51 19.98 25.69 16.33 25.91 15.39C26.13 14.45 27.62 11.12 28.19 9.34C28.76 7.56 25.24 4.24 24.1 3.41C22.96 2.58 19.78 6.97 19.44 8.04C19.1 9.11 19.1 19.31 19.1 19.31L18.93 19.45C17.54 17.94 16.19 15.64 15.79 12.26C14.9 4.58 18.09 0 18.09 0C18.09 0 1.15 4.7 0.0700011 21.4C-1.01 38.1 11.34 42.5 11.34 42.5C11.34 42.5 5.79 36.41 8.63 29.36C10.86 35.33 15.68 36.96 15.68 36.96C15.68 36.96 10.66 28.56 15.15 23.24C15.98 24.55 17.66 27.44 18.64 30.75C18.98 31.92 19.47 32.88 20.01 33.72V33.73C20.18 34.04 20.4 34.39 20.63 34.75C20.78 35.2 20.93 35.65 21.09 36.1C21.1 36.14 21.12 36.19 21.13 36.23C21.16 36.73 21.19 37.24 21.21 37.74C21.24 38.53 21.33 39.4 21.12 40.17C20.83 41.24 19.8 41.67 18.77 41.37C17.56 41.02 17.3 40.2 17.39 39.05C17.41 38.84 17.21 38.55 16.99 38.52C15.76 38.35 14.95 39.2 14.79 40.37C14.62 41.67 15.08 43.03 15.84 44.08C17.46 46.33 20.58 47.44 23.29 47.18C24.68 47.05 25.91 46.52 27 45.68C28.1 44.83 29.29 43.76 29.96 42.53C30.41 41.7 30.63 40.76 30.67 39.79C30.85 38.96 30.95 38.07 30.97 37.13C30.97 37.12 30.97 37.12 30.97 37.11C30.97 37.1 30.97 37.09 30.97 37.09C30.97 37.07 30.97 37.05 30.97 37.03C31.06 33.29 30.45 31.24 30.33 27.95C30.21 24.63 29.72 22.5 31.23 22.54C31.52 22.57 31.78 22.62 31.98 22.66C31.99 22.66 32 22.66 32.01 22.67C32.22 22.75 32.39 22.84 32.49 22.95C37.37 28.25 32.19 36.94 32.19 36.94C32.19 36.94 37.01 35.31 39.24 29.34C42.07 36.39 36.53 42.48 36.53 42.48C36.53 42.48 48.89 38.1 47.8 21.4Z" fill="black"></path>
    </g>
    <defs>
      <clipPath id="clip0">
        <rect width="47.87" height="47.24" fill="white"></rect>
      </clipPath>
    </defs>
  </symbol>
  <symbol fill="none" xmlns="http://www.w3.org/2000/svg" viewBox="0 0 42 46" id="hellion">
    <g>
      <path fill-rule="evenodd" clip-rule="evenodd" d="M39.4449 20.0632C42.4623 14.5107 44.4207 6.38067 35.7635 0C38.1001 6.00882 35.318 14.215 27.888 16.9447C23.4753 15.1277 18.5331 15.1277 14.1205 16.9447C6.68203 14.2065 3.90837 6.00882 6.24497 0C-2.40382 6.38067 -0.462254 14.4938 2.55516 20.0463L3.81591 26.4439L1.66422 32.9598C4.24457 38.1742 11.5486 46 20.9958 46C30.4431 46 36.8898 39.0446 40.3274 32.9598L38.1757 26.4439L39.4449 20.0632ZM9.18674 29.6976C8.78329 30.0103 8.42188 30.3737 8.11089 30.7878V28.6158C8.11089 28.6158 9.82552 24.2719 12.4059 24.2719C14.9862 24.2719 16.7008 28.6158 16.7008 28.6158V30.7878C14.9274 28.3877 11.557 27.8975 9.18674 29.6976ZM18.3062 38.9348C16.6084 38.2249 15.2552 36.8473 14.5407 35.1317V32.9598C18.3566 35.8501 23.6098 35.8501 27.4257 32.9598V35.1317H27.4341C25.9548 38.7319 21.8783 40.4306 18.3062 38.9348ZM33.8892 30.7878C32.3847 28.3877 29.2412 27.6777 26.8709 29.199C26.2322 29.6046 25.7026 30.1455 25.2992 30.7878V28.6158C25.2992 28.6158 26.5852 24.2719 29.5942 24.2719C32.6032 24.2719 33.8892 28.6158 33.8892 28.6158V30.7878Z" fill="#010101"></path>
    </g>
    <defs>
      <clipPath id="clip0">
        <rect width="42" height="46" fill="white"></rect>
      </clipPath>
    </defs>
  </symbol>
  <symbol fill="none" xmlns="http://www.w3.org/2000/svg" viewBox="0 0 37 51" id="inanimate">
    <path d="M36.4988 36.5537C35.9977 36.0013 35.5925 35.5114 35.134 35.0528C33.4919 33.4268 31.37 33.3851 29.2374 33.3538C26.6144 33.3121 24.2686 34.2294 21.9867 35.355C20.6112 36.0325 19.2784 36.7934 17.9455 37.5439C16.6553 38.2735 15.6743 39.3262 14.864 40.5249C13.6164 42.3593 15.2052 44.6316 16.8472 45.1006C18.2974 45.5175 19.6516 45.1631 20.9524 44.6941C22.0827 44.2772 23.1383 43.6205 24.1513 42.9639C24.5458 42.7137 24.8337 42.2238 25.0256 41.7861C25.2176 41.3379 24.9297 40.9939 24.4392 40.9418C23.6714 40.8584 22.9037 40.8271 22.0614 40.7646C21.9761 40.4936 22.1253 40.1913 22.4239 39.9725C22.8824 39.6493 23.3409 39.2845 23.8527 39.0865C25.7294 38.3673 27.6487 37.9191 29.7173 38.1067C31.3487 38.2527 32.7455 40.108 32.6495 41.6506C32.5642 42.9847 31.9031 44.0166 31.1034 45.0068C28.7789 47.8836 25.6761 49.4679 22.072 50.3225C20.1421 50.7812 18.2014 51 16.2288 51.0105C15.4397 51.0209 14.7573 50.729 14.0429 50.4268C13.0939 50.0203 12.1876 49.5721 11.4412 48.8425C9.11669 46.5807 8.06107 43.8394 8.03975 40.65C8.02908 38.0546 9.15934 35.9596 10.8227 34.0834C11.9957 32.7597 13.1686 31.4256 14.4801 30.2373C16.9006 28.0172 19.7795 26.6831 23.1063 26.3183C24.5031 26.1723 25.8787 25.9326 27.2968 26.1202C30.7196 26.558 33.5879 28.0068 35.7951 30.6126C36.2536 31.1546 36.5308 31.8737 36.7441 32.5617C37.064 33.5831 37.064 34.6567 36.84 35.699C36.7761 35.9804 36.6268 36.2514 36.4988 36.5537Z" fill="black"></path>
    <path d="M2.68702 41.244C2.24984 40.7541 1.75935 40.3059 1.39682 39.7848C0.383848 38.3255 0.0959515 36.6474 0.0106489 34.938C-0.106642 32.4365 0.661081 30.1539 1.81267 27.965C3.57203 24.6088 6.12045 21.9092 9.13803 19.6266C12.4542 17.1251 16.2928 16.0306 20.4086 15.6971C22.7225 15.5095 25.0256 15.4157 27.2968 15.916C29.4187 16.385 31.466 17.0521 33.2467 18.3341C34.0997 18.9491 34.9527 19.5745 35.7844 20.2207C36.1363 20.5021 36.1043 20.7314 35.6671 20.8148C35.0807 20.9295 34.4729 20.9816 33.8758 20.9712C33.1507 20.9607 32.4256 20.8669 31.7006 20.8044C28.0645 20.4813 24.4712 20.8774 21.0058 21.8571C17.1778 22.9411 13.6271 24.6818 10.6841 27.3813C9.23399 28.7051 7.79451 30.0601 6.49365 31.5297C5.2461 32.9368 4.47837 34.6566 3.81728 36.4181C3.2948 37.8148 2.99624 39.2532 2.94293 40.7333C2.94293 40.8688 2.88961 40.9938 2.86829 41.1293C2.81497 41.171 2.75099 41.2023 2.68702 41.244Z" fill="black"></path>
    <path d="M6.05646 16.6139C6.26971 15.655 6.6749 14.8003 7.29335 14.0915C8.58355 12.6323 9.92706 11.2356 11.2386 9.79723C13.6697 7.1185 15.8236 4.27301 17.0072 0.82298C17.0925 0.58325 17.1991 0.353943 17.3484 -0.0108643C18.4787 0.927211 19.5876 1.76105 20.5899 2.70955C22.0614 4.09582 23.5222 5.50293 24.8444 7.01427C25.8573 8.16081 26.6677 9.48454 27.5634 10.7353C27.8513 11.1314 28.1072 11.5483 28.3418 11.9756C28.4377 12.1424 28.4484 12.3509 28.5017 12.5385C28.3204 12.5802 28.1392 12.6531 27.9686 12.6531C25.804 12.5802 23.6395 12.476 21.4749 12.4343C18.9372 12.3926 16.4207 12.6948 14.0003 13.3411C11.4945 14.0081 8.9994 14.8003 6.81352 16.2804C6.64291 16.395 6.45098 16.4888 6.25905 16.5826C6.2164 16.6139 6.16309 16.6035 6.05646 16.6139Z" fill="black"></path>
  </symbol>
  <symbol fill="none" xmlns="http://www.w3.org/2000/svg" viewBox="0 0 34 55" id="ironclad">
    <g>
      <path d="M17.0015 39.7108C11.188 33.7432 5.07473 33.5803 2.0075 33.9921L1.51093 40.5908C1.51093 40.5908 8.80205 37.8174 17.0015 46.2354C25.201 37.8204 32.4921 40.5908 32.4921 40.5908L31.9956 33.9921C28.9283 33.5803 22.815 33.7432 17.0015 39.7108Z" fill="black"></path>
      <path d="M31.7049 24.217C32.7495 22.5221 33.3369 20.6228 33.3369 18.6138C33.3369 13.5648 29.6368 9.20025 24.2533 7.09649L17.0015 0L9.74975 7.09649C4.36922 9.19729 0.666132 13.5648 0.666132 18.6138C0.666132 20.6228 1.25354 22.5221 2.29816 24.217L0 32.1816C0 32.1816 8.799 29.0497 17.0015 37.4647C25.201 29.0497 34.003 32.1816 34.003 32.1816L31.7049 24.217ZM8.09654 18.8776C7.53638 20.1428 7.22451 21.488 7.42132 22.9073C7.5606 23.8999 8.02084 24.774 8.67486 25.5C7.00953 24.7325 5.25033 23.0614 5.12619 19.4287C4.89002 12.4181 16.5685 8.53356 16.5685 8.53356C16.5685 8.53356 9.19263 13.7337 8.09654 18.8776Z" fill="black"></path>
    </g>
    <defs>
      <clipPath id="clip0">
        <rect width="34" height="55" fill="white"></rect>
      </clipPath>
    </defs>
  </symbol>
  <symbol fill="none" xmlns="http://www.w3.org/2000/svg" viewBox="0 0 33 49" id="invoker">
    <g>
      <path d="M27.2682 43.6406C24.8233 43.1302 22.8294 43.3854 22.2101 41.9938C21.9221 41.3389 20.5476 37.872 21.0909 35.5992C21.531 33.7597 23.1011 30.0953 23.6824 28.7615C22.8023 28.5882 21.933 28.1644 21.0203 27.8659C19.537 27.4469 18.9394 26.7198 18.771 26.0024C18.7656 25.9879 18.7656 25.9735 18.7656 25.9638C18.733 25.8146 18.7167 25.6653 18.7167 25.516C18.7167 23.98 20.9551 23.3443 23.2858 22.2898C23.5629 22.1646 23.84 22.0346 24.1008 21.8998C24.3398 21.7794 24.5789 21.6542 24.8125 21.5194C28.4852 19.3718 27.73 17.7683 27.73 15.0669C27.73 10.5213 27.529 9.79422 27.529 7.76219C27.529 3.52958 30.2346 3.53439 33.0054 1.17974C32.348 0.409296 30.6258 0.0337068 28.7188 0.00481525H28.6971C28.5667 0.00481525 28.4309 0.00481525 28.295 0.00481525H4.70497C4.57458 0 4.43876 0 4.30836 0H4.28663C2.37965 0.0288915 0.657392 0.404481 0 1.17492C2.77083 3.52958 5.47646 3.52476 5.47646 7.75737C5.47646 9.78941 5.27544 10.5165 5.27544 15.0621C5.27544 17.7635 4.52025 19.3669 8.19295 21.5145C8.42657 21.6494 8.66562 21.7746 8.90468 21.895C9.16546 22.0298 9.44254 22.1598 9.71962 22.285C12.0504 23.3395 14.2888 23.98 14.2888 25.5112C14.2888 25.6557 14.2725 25.8049 14.2399 25.959C14.2344 25.9735 14.2344 25.9879 14.2344 25.9975C14.066 26.715 13.4684 27.4421 11.9797 27.8659C11.0616 28.1644 10.1923 28.5833 9.31758 28.7615C9.90435 30.0953 11.4745 33.7597 11.9091 35.5992C12.4524 37.872 11.0833 41.3389 10.7899 41.9938C10.176 43.3854 8.17665 43.1302 5.73181 43.6406C3.28696 44.151 3.15114 46.3468 3.15114 46.3468H29.8489C29.8489 46.3468 29.713 44.1462 27.2682 43.6406Z" fill="black"></path>
      <path d="M16.5 49C8.12773 49 3.15111 46.3419 3.15111 46.3419L16.5 45.4126V49Z" fill="black"></path>
      <path d="M16.5 49C24.8722 49 29.8489 46.3419 29.8489 46.3419L16.5 45.4126V49Z" fill="black"></path>
    </g>
    <defs>
      <clipPath id="clip0">
        <rect width="33" height="49" fill="white"></rect>
      </clipPath>
    </defs>
  </symbol>
  <symbol fill="none" xmlns="http://www.w3.org/2000/svg" viewBox="0 0 40 51" id="legionnaire">
    <g>
      <path d="M13.36 17.35C13.47 17.05 13.44 16.73 13.27 16.45L6.96002 5.98L3.86002 0L2.76002 5.73H2.77002L0.0200183 19.1C-0.0499817 19.46 0.0700183 19.82 0.360018 20.1L6.42002 25.87L11.19 48.57C11.38 49.57 12.51 50.25 13.7 50.09C13.7 50.09 15.69 48.98 15.5 47.98L10.6 24.66L13.36 17.35Z" fill="black"></path>
      <path d="M9.20001 24.33C9.20001 24.33 21.83 25.28 22.16 22.31C22.33 20.62 18.07 21.24 18.16 19.13C18.2 18.06 26.13 15.91 37.36 15.62C35.66 18.76 31.21 22.7 31.21 22.7C31.21 22.7 36.37 25.58 39.32 29.35C35.73 30.22 26.15 28.48 25.32 30.05C25.74 31.95 26.77 35.87 26.77 35.87C26.77 35.87 19.92 39.46 11.66 37.52C10.75 33.06 11.18 27.82 11.18 27.82L9.20001 24.33Z" fill="black"></path>
    </g>
    <defs>
      <clipPath id="clip0">
        <rect width="39.31" height="50.11" fill="white"></rect>
      </clipPath>
    </defs>
  </symbol>
  <symbol fill="none" xmlns="http://www.w3.org/2000/svg" viewBox="0 0 36 52" id="knight">
    <path d="M32.55 16.21C31.52 10.33 27.1 5.62 21.37 4.17V0H13.94V4.17C8.21 5.61 3.79 10.32 2.76 16.21L17.65 10.49L32.55 16.21Z" fill="black"></path>
    <path d="M2.53 38.92V42.78L17.65 51.52L32.78 42.78V38.92L17.65 44.73L2.53 38.92Z" fill="black"></path>
    <path d="M17.66 14.19L0 20.97V34.54L17.66 41.32L35.31 34.54V20.97L17.66 14.19ZM6.77 31.23C6.77 31.58 6.66 31.91 6.48 32.18L3.4 31.61C3.37 31.49 3.36 31.36 3.36 31.23V24.27C3.36 24.11 3.38 23.95 3.43 23.8L6.43 23.24C6.65 23.53 6.78 23.88 6.78 24.27V31.23H6.77ZM15.16 33.22C15.16 33.41 15.13 33.6 15.07 33.77L11.75 33.15V22.28C11.75 22.27 11.75 22.26 11.75 22.25L15.04 21.64C15.12 21.84 15.16 22.05 15.16 22.28V33.22ZM23.56 33.16L20.24 33.78C20.18 33.61 20.15 33.42 20.15 33.23V22.28C20.15 22.06 20.19 21.84 20.27 21.64L23.56 22.25C23.56 22.26 23.56 22.27 23.56 22.28V33.16ZM31.95 31.23C31.95 31.36 31.93 31.49 31.91 31.61L28.83 32.18C28.65 31.91 28.54 31.58 28.54 31.23V24.27C28.54 23.88 28.67 23.53 28.89 23.24L31.89 23.8C31.93 23.95 31.96 24.11 31.96 24.27V31.23H31.95Z" fill="black"></path>
  </symbol>
  <symbol fill="none" xmlns="http://www.w3.org/2000/svg" viewBox="0 0 50 41" id="mystic">
    <path d="M23.0411 24.7105L15.8211 39.7105H33.6511L26.3911 25.0705L23.0411 24.7105Z" fill="black"></path>
    <path d="M49.1411 10.9505C48.4011 10.2805 47.3011 10.0905 46.3611 10.4905C41.5911 12.4905 37.0311 13.5705 32.7711 14.0405L27.5411 1.48052C27.1711 0.600519 26.2711 0.0205186 25.2511 0.000518634C24.2311 -0.0194814 23.3111 0.540519 22.9111 1.41052L17.4411 13.2805C14.7511 12.7105 12.3611 11.9805 10.3911 11.2505C8.30111 10.4705 6.66111 9.70052 5.55111 9.13052C4.99111 8.84052 4.57111 8.60052 4.29111 8.44052C4.16111 8.36052 4.06111 8.30052 3.99111 8.26052L3.93111 8.22052H3.92111C3.04111 7.65052 1.87111 7.67052 1.01111 8.27052C0.151105 8.86052 -0.208895 9.90052 0.121105 10.8405L7.30111 31.4605L7.39111 31.7105L8.34111 34.4405C8.39111 34.5705 8.45111 34.6905 8.51111 34.8105L10.4611 40.1905L12.8311 34.9505C12.9011 34.8505 12.9611 34.7505 13.0111 34.6305L20.4611 18.4905C22.6811 18.7805 25.0311 18.9705 27.5211 18.9705C28.1511 18.9705 28.7911 18.9505 29.4411 18.9305L35.9411 34.5605C36.0011 34.7105 36.0911 34.8505 36.1811 34.9805L38.3111 40.1905L40.6111 34.5605C40.6211 34.5405 40.6311 34.5305 40.6311 34.5105C40.6311 34.5105 40.6711 34.4205 40.7211 34.2905L41.8711 31.4605H41.8511C43.3511 27.7705 46.1411 21.1005 49.6811 13.5205C50.0911 12.6405 49.8811 11.6205 49.1411 10.9505ZM11.0511 27.1205L6.78111 14.8605C7.33111 15.0905 7.91111 15.3205 8.53111 15.5505C10.5011 16.2805 12.8311 17.0005 15.4511 17.6005L11.0511 27.1205ZM27.5311 14.3405C25.7911 14.3405 24.1111 14.2405 22.5111 14.0805L25.1011 8.47052L27.5311 14.3405ZM42.7811 16.7405C40.9511 20.8205 39.4011 24.4405 38.2511 27.2205L34.6211 18.5105C37.2511 18.1405 39.9811 17.5705 42.7811 16.7405Z" fill="black"></path>
  </symbol>
  <symbol fill="none" xmlns="http://www.w3.org/2000/svg" viewBox="0 0 51 47" id="nightbringer">
    <g>
      <path d="M24.02 33.47C24.41 33.74 24.78 33.86 25.16 33.86C25.54 33.86 25.91 33.74 26.3 33.47C26.68 33.2 27.07 32.78 27.41 32.22C28.09 31.1 28.55 29.45 28.55 27.62C28.55 26.24 28.29 24.97 27.87 23.95C27.45 22.93 26.87 22.17 26.29 21.77C25.9 21.5 25.53 21.38 25.15 21.38C24.77 21.38 24.4 21.5 24.01 21.77C23.63 22.04 23.24 22.46 22.9 23.02C22.22 24.14 21.76 25.79 21.76 27.62C21.76 29 22.02 30.27 22.44 31.29C22.85 32.31 23.44 33.07 24.02 33.47Z" fill="black"></path>
      <path d="M50.06 20.86C49.38 17.06 47 14.01 45.79 10.09C45.39 10.69 45.03 11.03 44.92 11.44C44.64 12.5 44.39 13.59 44.27 14.68C44.12 16.16 43.33 16.95 41.84 16.91C40.34 16.87 39.08 15.82 38.53 14.06C37.36 10.28 36.67 6.42 36.68 2.44C36.68 1.67 36.35 0.9 36.18 0.13C36.05 0.09 35.91 0.05 35.77 0C34.89 0.75 33.9 1.39 33.15 2.25C30.53 5.27 29.15 8.89 28.55 12.79C28.1 15.75 28.55 18.6 30.23 21.16C30.35 21.34 30.56 21.47 30.74 21.63C32.01 19.44 33.46 19.02 35.5 20.13C37.51 21.23 38.02 23 37.66 25.16C37.45 26.43 36.76 27.26 35.33 27.58C33.28 28.04 31.92 26.98 30.44 25.91C30.43 25.9 30.42 25.89 30.41 25.89C30.49 26.45 30.53 27.02 30.53 27.62C30.53 29.24 30.23 30.76 29.71 32.05C29.18 33.34 28.42 34.41 27.43 35.11C26.77 35.57 25.98 35.86 25.15 35.86C24.32 35.86 23.53 35.58 22.87 35.11C22.2 34.64 21.65 34.01 21.19 33.26C20.28 31.76 19.76 29.78 19.76 27.62C19.76 27.02 19.81 26.45 19.89 25.89C18.95 26.48 18.05 27.18 17.03 27.57C15.37 28.21 13.34 27.22 12.82 25.63C12.23 23.84 12.6 21.22 14.99 20.07C17.01 19.1 18.23 19.46 19.78 21.82C19.92 21.56 20.03 21.34 20.16 21.14C21.44 19.15 22.04 16.97 21.94 14.62C21.86 12.77 21.43 11 20.91 9.19C20.39 7.42 19.59 5.86 18.72 4.31C17.72 2.53 16.47 0.92 14.29 0.1C14.07 0.72 13.75 1.28 13.69 1.86C13.66 2.12 13.65 2.38 13.64 2.64C15.44 7.63 13.41 12.3 11.28 15.17C11.27 15.19 11.25 15.21 11.24 15.23C11.22 15.26 11.2 15.29 11.17 15.32C10.76 15.86 10.15 16.35 9.58003 16.65C7.82003 17.58 6.26003 16.49 6.10003 14.54C6.00003 13.45 5.70003 12.37 5.41003 11.31C5.31003 10.95 4.94003 10.66 4.68003 10.32C3.77003 12.24 2.86003 13.95 2.13003 15.73C1.43003 17.45 0.730026 19.21 0.360026 21.02C-0.239974 23.88 -0.229974 26.79 1.55003 29.31C3.11003 31.53 4.84003 33.64 6.52003 35.78C7.12003 36.54 7.76003 37.27 8.40003 38C8.77003 38.42 9.18003 38.81 9.58003 39.21C9.66003 39.16 9.74003 39.12 9.82003 39.07C9.80002 38.78 9.73003 38.49 9.76003 38.21C9.85003 37.36 9.83003 36.46 10.13 35.68C10.82 33.87 13.22 33.03 14.58 34.23C15.58 35.11 16.49 36.29 16.98 37.52C17.76 39.49 18.86 41.19 20.49 42.42C21.99 43.55 23.43 44.68 24.43 46.29C24.92 47.07 25.28 46.9 25.83 46.28C26.91 45.08 27.96 43.78 29.26 42.87C31.05 41.63 32.21 40 33.17 38.15C33.61 37.3 33.92 36.37 34.43 35.58C35.93 33.26 38.48 33 39.87 35.12C40.41 35.94 40.41 37.13 40.61 38.16C40.67 38.46 40.58 38.79 40.55 39.1C40.64 39.14 40.73 39.18 40.82 39.22C41.23 38.78 41.67 38.35 42.05 37.89C43.41 36.27 44.63 34.54 46.11 33.04C49.52 29.61 50.92 25.67 50.06 20.86Z" fill="black"></path>
    </g>
    <defs>
      <clipPath id="clip0">
        <rect width="50.3" height="46.8" fill="white"></rect>
      </clipPath>
    </defs>
  </symbol>
  <symbol fill="none" xmlns="http://www.w3.org/2000/svg" viewBox="0 0 50 41" id="ranger">
    <path d="M39.55 19.1868L50 7.80682L34.05 6.63682L36.71 9.12682L34.18 10.0668C33.51 8.93682 32.73 7.87682 31.84 6.93682C30.86 5.88682 29.78 4.96682 28.63 4.19682C27.49 3.40682 26.29 2.75682 25.06 2.21682C22.6 1.13682 20.04 0.496819 17.49 0.196819C16.21 0.0468191 14.94 -0.0231809 13.66 0.00681907C12.39 0.0368191 11.12 0.126819 9.87 0.386819C12.25 1.22682 14.52 2.09682 16.69 3.09682C17.96 3.67682 19.18 4.29682 20.35 4.96682L0 24.0468L27.55 31.9168C25.98 34.7668 23.93 37.5268 21.58 40.2068C26.36 38.5168 30.62 35.1668 33.53 30.5968C34.29 29.4668 34.85 28.2068 35.39 26.9368C35.61 26.2768 35.83 25.6168 36.03 24.9368C36.14 24.6068 36.22 24.2668 36.27 23.9168L36.45 22.8768L36.62 21.8268C36.67 21.4768 36.65 21.1268 36.67 20.7668C36.69 20.0568 36.71 19.3468 36.7 18.6468L36.43 16.5468C36.42 16.4868 36.41 16.4368 36.41 16.3768L39.27 15.5468L39.55 19.1868ZM22.74 6.44682C24.58 7.70682 26.2 9.13682 27.44 10.7468C27.8 11.2168 28.13 11.6968 28.43 12.1868L8.76 19.4568L22.67 6.39682C22.69 6.41682 22.72 6.42682 22.74 6.44682ZM30.65 19.0968L30.71 20.6368C30.71 20.8968 30.75 21.1568 30.73 21.4168C30.7 21.6768 30.68 21.9268 30.66 22.1868L30.61 22.9668C30.6 23.2268 30.58 23.4868 30.51 23.7468C30.4 24.2568 30.31 24.7768 30.23 25.3068C29.92 26.3268 29.68 27.3768 29.24 28.3968C29.09 28.7768 28.92 29.1568 28.75 29.5368L9.79 24.1068L30.49 18.1068L30.65 19.0968Z" fill="#010101"></path>
  </symbol>
  <symbol fill="none" xmlns="http://www.w3.org/2000/svg" viewBox="0 0 54 54" id="redeemed">
    <g>
      <path d="M31.16 16.1401C31.26 17.5301 31.38 21.0701 31.47 22.4401C31.77 27.0901 32.05 31.7401 32.35 36.3901C32.54 39.2701 32.73 42.1501 32.95 45.0301C33.01 45.7501 32.8 46.3401 32.27 46.9501C30.48 49.0201 28.75 51.1301 26.93 53.3101C26.5 52.8001 26.08 52.3201 25.68 51.8401L25.57 51.9001C25.57 51.9001 23.76 49.7401 22.87 48.5001C21.89 47.4901 20.79 46.5401 20.68 45.2001C20.55 43.4901 20.66 41.7601 20.76 40.0401C20.95 36.6001 21.2 33.1701 21.43 29.7301C21.66 26.2401 21.88 22.7501 22.11 19.2701C22.13 18.9601 22.19 16.4801 22.24 16.1301C20.62 16.1301 19 16.1301 17.37 16.1301C17.37 14.9901 17.37 12.3701 17.37 11.2201C23.61 12.4901 29.82 12.6601 36.05 11.1801C36.05 12.3501 36.05 14.9801 36.05 16.1301L31.16 16.1401Z" fill="black"></path>
      <path d="M28.92 0C27.39 0 25.94 0 24.42 0C24.42 3.74 24.42 7.43 24.42 11.19C25.99 11.19 27.42 11.19 28.92 11.19C28.92 7.44 28.92 3.73 28.92 0Z" fill="black"></path>
      <path d="M41.18 24.05C43.83 23.79 47 23.28 48.91 22.21C52.67 20.12 53.95 16.92 53.29 11.59C46.66 18.23 40.57 18.74 34.33 19.64C34.57 25.55 34.81 31.41 35.05 37.26C35.94 36.45 36.41 35.7 36.68 34.72C36.79 34.33 36.89 33.93 37 33.53C41.06 34.52 42.61 33.08 44.96 30.44C42.53 31.22 39.6 29.95 38.08 29.13C45.35 31.02 49.78 28.17 51.65 23.46C49.08 24.91 44.46 24.56 41.18 24.05Z" fill="black"></path>
      <path d="M4.55 22.21C6.46 23.27 9.62 23.79 12.28 24.05C9 24.56 4.38 24.91 1.8 23.46C3.67 28.17 8.1 31.02 15.37 29.13C13.84 29.96 10.92 31.22 8.49 30.44C10.84 33.08 12.39 34.52 16.45 33.53C16.55 33.93 16.66 34.33 16.77 34.72C17.04 35.7 17.51 36.45 18.4 37.26C18.64 31.41 18.88 25.55 19.12 19.64C12.89 18.74 6.79 18.23 0.16 11.59C-0.49 16.92 0.79 20.12 4.55 22.21Z" fill="black"></path>
    </g>
    <defs>
      <clipPath id="clip0">
        <rect width="53.45" height="53.31" fill="white"></rect>
      </clipPath>
    </defs>
  </symbol>
  <symbol fill="none" xmlns="http://www.w3.org/2000/svg" viewBox="0 0 45 51" id="revenant">
    <g>
      <path d="M0.0568297 26.4545C0.170485 27.3945 0.340967 28.3205 0.426207 29.2605C0.447515 29.5271 0.49724 29.7867 0.554068 30.0462C1.35675 31.2107 2.43647 32.1718 3.65825 32.9084C4.89424 33.659 6.59195 33.8975 7.60063 34.9638C8.1618 35.5601 8.46014 36.2827 8.69455 37.0333C9.08524 37.5664 9.35517 38.1697 9.66062 38.7801C10.4207 40.3023 11.7277 41.509 12.5872 42.9891C13.4112 44.4132 14.1002 45.9074 14.9953 47.2894C15.94 48.7556 17.1973 50.0323 18.8879 50.6216C20.6425 51.2389 22.5036 51.0004 24.2581 50.5023C25.6717 50.0955 27.8311 49.9762 28.8114 48.7696C29.7632 47.5981 30.1326 46.0197 30.9069 44.7359C32.5264 42.0491 33.9897 39.0186 36.6464 37.1876C39.0758 34.5008 42.0734 32.249 43.7356 28.8887C44.5738 27.1841 45 25.3742 45 23.5923C44.9148 23.3468 44.8224 23.1083 44.7372 22.8627C44.5312 22.2735 44.4246 21.7473 44.1405 21.2633C43.9771 20.9897 43.7711 20.7372 43.6006 20.4706C43.3023 20.19 42.9897 19.9234 42.6914 19.6428C42.0024 18.9764 41.2423 18.3731 40.7877 17.5172C40.4467 16.8718 40.2194 16.1773 39.8358 15.56C39.7932 15.4898 39.7506 15.4197 39.7009 15.3566C39.2818 15.4057 38.8769 15.553 38.5075 15.7704C38.3867 15.9669 38.2731 16.1703 38.1878 16.3808C38.06 16.6824 37.9676 16.9981 37.8895 17.3138C37.8469 17.5032 37.8185 17.8048 37.8256 17.882C37.8753 18.5274 38.4009 19.3131 38.7206 19.9865C39.1468 20.8775 39.3244 21.7754 39.1255 22.7505C39.0332 23.2135 38.8698 23.6414 38.6638 24.0483C38.4009 25.9564 36.959 27.8786 35.6093 29.3096C35.5383 29.1623 35.4744 29.022 35.3962 28.8817C34.7356 27.6611 33.8903 26.6649 32.9313 25.8652C32.6969 25.2479 32.5833 24.5814 32.562 23.8869C32.5122 21.9929 32.8816 20.0216 33.1942 18.1696C33.5067 16.3246 34.0111 14.62 34.6362 12.8942C34.8066 12.4242 34.9558 11.9472 35.0837 11.4632C35.0695 11.3088 35.0481 11.1545 35.0339 10.9931C34.9487 10.2285 34.97 9.44981 34.8208 8.69919C34.6575 7.85738 34.2313 7.24706 33.6133 6.65779C32.5975 5.69672 31.3189 5.09341 30.1326 4.37086C28.9108 3.62725 28.0016 2.71528 27.0071 1.71212C26.5028 1.20703 25.97 0.737025 25.3236 0.421343C25.146 0.33716 24.5777 0.105658 24.2084 0.0284902C23.9669 0.568655 23.8532 1.21405 23.8035 1.7963C23.8319 2.29438 23.8674 2.79947 23.9598 3.29053C24.116 4.12533 24.3504 5.07237 24.7269 5.9212C24.734 5.93523 24.7411 5.94225 24.7482 5.95628C24.8264 6.13165 24.9187 6.30704 25.004 6.48241C25.1815 6.80511 25.3875 7.09974 25.629 7.36632C26.4601 8.2853 27.7956 8.95875 28.1294 10.2285C28.1365 10.2636 28.1365 10.2916 28.1436 10.3267C28.1508 10.3337 28.1579 10.3407 28.165 10.3477C28.1579 10.3618 28.1579 10.3758 28.1508 10.3828C28.3923 11.6736 27.4262 12.761 26.9929 13.9044C26.7159 14.627 26.4317 15.3425 26.1405 16.051C25.9416 17.0191 25.8066 17.9942 25.7356 18.9834C25.1105 20.3583 24.5991 21.7754 24.5209 23.2416C23.9953 23.2486 23.4696 23.2766 22.944 23.3257C22.7238 23.1574 22.5036 22.996 22.2905 22.8136C22.1768 22.7154 22.0631 22.6172 21.9495 22.519C21.5872 22.035 21.2676 21.5369 20.9621 21.0318C20.8627 18.9834 21.5446 16.942 22.3544 15.0549C22.5036 14.5709 22.5888 14.1149 22.6314 13.6028C22.7025 12.6627 23.0221 11.842 22.7593 10.93C22.7451 10.916 22.738 10.9019 22.7238 10.8949C22.2833 10.481 21.7222 10.0601 21.0971 10.0882C20.8485 10.0952 20.6496 10.1864 20.4223 10.3407C20.2518 10.46 20.0316 10.6915 19.8611 10.8809C19.6977 11.0633 19.5414 11.2387 19.3852 11.4211C19.2289 12.0875 18.9163 12.7399 18.618 13.3362C18.6109 13.3432 18.6038 13.3502 18.6038 13.3572C18.5541 13.5326 18.5114 13.708 18.4617 13.8764C18.3552 14.2411 18.2344 14.6059 18.1208 14.9707C18.0497 14.8094 17.9716 14.641 17.8935 14.4867C17.5738 13.8553 17.2826 13.1959 17.0908 12.5154C17.0339 12.4453 16.9913 12.3611 16.9558 12.2769C16.9345 12.2418 16.9132 12.2138 16.8919 12.1717C16.3875 11.1685 16.8777 10.4109 17.0624 9.42175C17.2399 8.46068 17.0268 7.47856 17.3252 6.53152C17.5738 5.74582 18.0568 5.0864 18.7103 4.58131C18.8027 4.51116 18.895 4.45504 18.9945 4.3919C19.2857 3.78158 19.6409 3.19232 19.9108 2.60305C20.0955 2.20318 20.2802 1.76824 20.3583 1.29122C20.3512 1.29823 20.3725 1.05972 20.3725 1.02464C20.3725 0.989568 20.3583 0.877325 20.3583 0.863294C20.3441 0.800157 20.3157 0.715975 20.3086 0.680898C20.2944 0.666868 20.2234 0.547613 20.2234 0.540598C19.6054 -0.217036 18.6606 -0.0767349 17.8579 0.295068C17.7372 0.505521 17.6306 0.722993 17.5241 0.947477C17.4246 1.16495 17.3323 1.38943 17.2186 1.59988C17.1547 1.71914 17.0766 1.83138 17.0126 1.95064C17.0055 1.95765 17.0055 1.96467 17.0055 1.97168C16.9913 1.98572 16.9771 1.99975 16.9487 2.02781C16.9061 2.0699 16.8564 2.119 16.8066 2.16811C16.7924 2.17512 16.7782 2.18915 16.7356 2.21721C16.693 2.24527 16.6504 2.27333 16.6077 2.29438C16.4088 2.41364 16.1957 2.51886 15.9826 2.61707C15.5635 2.8135 15.1231 2.98187 14.7253 3.23441C13.9653 3.71845 13.262 4.44803 12.9992 5.31089C12.9921 5.3179 12.985 5.32491 12.9779 5.33193C12.9211 5.6897 12.7577 6.03344 12.5943 6.36315C12.573 6.40524 12.5162 6.5245 12.4878 6.58062C12.4736 6.62272 12.4594 6.6648 12.4451 6.70689C12.4238 6.77003 12.4096 6.83317 12.3883 6.89631C12.3031 7.219 12.2534 7.55573 12.2178 7.88544C12.1255 8.69919 12.09 9.50593 12.232 10.3197C12.3386 10.951 12.4594 11.5894 12.5091 12.2278C12.9211 13.722 13.0631 15.2934 13.2833 16.8438C13.5249 18.5414 13.8658 20.218 14.0789 21.9087C14.1073 21.9999 14.1287 22.0841 14.1571 22.1753C14.4057 22.8627 14.704 23.5432 14.91 24.2447C14.9313 24.3149 14.9526 24.392 14.974 24.4622C14.9882 24.4832 14.9953 24.5043 15.0095 24.5253C15.5706 25.4653 16.1602 26.3072 16.6006 27.3173C17.4744 29.3377 18.135 31.7088 18.0426 33.9186C18.0284 34.1852 17.8579 34.4447 17.5809 34.5149C14.8035 35.2023 13.4396 30.7828 12.4878 29.015C11.4933 27.156 10.0371 25.5145 9.76007 23.3538C9.68193 22.7224 9.66772 22.0841 9.53986 21.4597C9.42621 20.8915 9.26993 20.3373 9.206 19.762C9.06394 18.4853 9.24152 17.2226 9.54697 15.9879C9.56117 15.9458 9.58248 15.9107 9.59669 15.8757C9.66062 15.4407 9.75296 15.0058 9.88793 14.5568C10.0513 14.0237 9.96607 13.5747 9.73876 13.2169C9.58248 13.1468 9.42621 13.0836 9.24152 13.0345C9.14207 13.0065 9.03552 12.9854 8.92897 12.9574C8.88635 12.9504 8.86504 12.9433 8.85083 12.9363C8.83663 12.9363 8.81532 12.9363 8.7727 12.9363C8.69456 12.9363 8.60932 12.9363 8.53118 12.9363C8.50987 12.9433 8.39621 12.9644 8.3678 12.9714C7.66457 13.1889 6.94002 13.722 6.41437 14.3183C6.19417 14.5638 5.95265 14.9356 5.78217 15.3074C5.6472 15.6021 5.49092 16.1703 5.39858 16.5982C5.28493 17.1524 5.18548 17.6926 5.05052 18.2328C4.85162 19.9164 4.78769 21.6211 5.11445 23.2486C5.51934 25.2409 6.35754 27.1139 7.23126 28.9729C6.45699 28.552 5.68271 28.1381 4.90134 27.7172C4.76638 27.6471 4.62431 27.5699 4.48935 27.4927C4.25493 27.4787 4.01342 27.3805 3.82873 27.2261C3.7577 27.163 3.69377 27.0929 3.62984 27.0297C3.61563 27.0227 3.60853 27.0157 3.59432 27.0087C3.59432 27.0087 3.52329 26.9666 3.46646 26.9315C3.46646 26.9105 3.45936 26.8824 3.45936 26.8614C3.28177 26.6719 3.11129 26.4685 2.96212 26.251C2.85557 26.1037 2.76322 25.9494 2.68509 25.788C2.64247 25.7109 2.60695 25.6267 2.57143 25.5495C2.46488 25.297 2.44357 25.2479 2.5075 25.3952C2.47198 25.304 2.42937 25.2198 2.39385 25.1286C2.23757 24.7288 2.19495 24.3008 2.15233 23.8799C2.14523 23.8238 2.14523 23.5502 2.14523 23.7817C2.14523 23.6975 2.10971 23.5993 2.0884 23.5081C2.00316 23.445 1.91792 23.3889 1.83268 23.3257C1.56275 23.2556 1.27151 23.2416 0.987376 23.2836C0.703242 23.5853 0.468829 23.929 0.28414 24.3289C-0.0639244 25.0444 -0.0355126 25.7109 0.0568297 26.4545Z" fill="black"></path>
    </g>
    <defs>
      <clipPath id="clip0">
        <rect width="45" height="51" fill="white" transform="translate(45 51) rotate(-180)"></rect>
      </clipPath>
    </defs>
  </symbol>
  <symbol fill="none" xmlns="http://www.w3.org/2000/svg" viewBox="0 0 46 45" id="renewer">
    <g>
      <path d="M45.8077 19.0824C45.7303 18.7037 45.6689 18.333 45.5621 17.9462C45.4419 17.5513 45.3325 17.1646 45.1749 16.7616C45.0895 16.5575 45.0014 16.3534 44.9079 16.1519C44.8092 15.9478 44.7371 15.7517 44.6062 15.5422C44.4861 15.3353 44.3606 15.1285 44.2324 14.9244L44.0375 14.6181C43.9708 14.5161 43.9227 14.457 43.8667 14.3737C42.9936 13.1435 41.8269 11.8837 40.2409 10.9221C38.679 9.94973 36.7433 9.35073 34.9144 9.23791C33.0722 9.10898 31.3528 9.37222 29.8202 9.81811C29.3423 9.95778 28.8804 10.1136 28.4292 10.2882C26.7071 11.4727 24.9743 12.6761 23.1321 13.6082C21.3406 14.5161 18.8148 15.5798 16.767 15.1607C16.6282 15.1312 16.4973 15.0936 16.3692 15.0506C15.424 15.0802 14.4869 14.8921 13.9636 14.2367C13.9075 14.1642 13.8595 14.0917 13.8194 14.0165C13.0612 13.5679 12.6847 12.7057 13.0772 11.6044C13.4029 10.6884 14.0971 9.87989 14.8981 9.18956C15.8566 8.25212 17.0954 7.406 18.433 6.71568C21.4928 5.17387 25.1559 4.41907 28.8057 4.916C30.6292 5.16849 32.4501 5.7272 34.1722 6.60555C35.897 7.48121 37.5043 8.68189 38.938 10.1109C37.9368 8.3515 36.6712 6.68882 35.1147 5.25982C33.5635 3.82814 31.7319 2.63283 29.7188 1.75448C27.7083 0.862697 25.5163 0.341596 23.2763 0.115964C21.0309 -0.115039 18.7401 0.0192653 16.452 0.443667C14.1719 0.902988 11.8917 1.64972 9.6677 2.95247C8.55968 3.61594 7.45701 4.40833 6.41307 5.48545C6.15676 5.77286 5.89511 6.04147 5.64681 6.35843C5.40117 6.6915 5.15554 7.00846 4.9286 7.37108C4.81646 7.5618 4.707 7.75251 4.59753 7.94859C4.49073 8.15005 4.3786 8.32464 4.28782 8.55565C4.19437 8.77591 4.10092 8.99885 4.01282 9.22448L3.88466 9.56293C3.84194 9.67575 3.82325 9.75096 3.79121 9.84765C3.42277 10.9758 3.15043 12.2624 3.13174 13.6592C2.35213 14.8653 1.68465 16.168 1.18003 17.5621C0.453817 19.5498 0.0479898 21.7094 0.00527112 23.9147C-0.0507971 26.1253 0.304302 28.3628 0.945082 30.5332C1.58319 32.7116 2.57907 34.7933 3.8366 36.7596C5.1235 38.7097 6.67739 40.5469 8.71988 42.121C9.75047 42.8999 10.8985 43.6252 12.2842 44.1866C12.6447 44.3182 12.9917 44.4579 13.3762 44.568C13.774 44.6701 14.1585 44.7775 14.5803 44.8527C14.7966 44.885 15.0155 44.9145 15.2371 44.9414C15.4614 44.9629 15.667 45.0032 15.9126 45.0005C16.1503 45.0058 16.3906 45.0058 16.6308 45.0005L16.9913 44.9924C17.1114 44.987 17.1889 44.979 17.2876 44.9709C18.7881 44.8635 20.4648 44.517 22.1068 43.6547C22.5928 43.4076 23.0653 43.1095 23.5219 42.7818C25.3134 42.9322 27.161 42.857 28.9952 42.4863C31.0591 42.0753 33.1016 41.299 34.9972 40.187C36.9009 39.083 38.6176 37.6164 40.1234 35.9322C41.6373 34.2481 42.8868 32.3114 43.9014 30.2082C44.8839 28.0862 45.6368 25.7976 45.9092 23.2244C46.0346 21.9297 46.0533 20.5651 45.8077 19.0824ZM17.9364 34.1594C17.4025 35.2607 16.177 35.7147 15.0236 35.5025C14.9595 35.5025 14.8954 35.5025 14.8313 35.5078C14.3027 35.4917 13.6352 35.3359 12.9544 35.0834C11.574 34.5677 10.1429 33.6491 8.85071 32.5343C6.27157 30.2727 4.18369 27.1487 3.25723 23.5628C2.79533 21.7712 2.61912 19.8614 2.77398 17.9274C2.84339 17.0141 2.99558 16.0955 3.21184 15.1849C3.40942 16.9174 4.04753 18.6956 4.97666 20.1461C5.67617 21.2608 6.50118 22.2037 7.37157 23.0095C7.41963 23.0337 7.46769 23.0632 7.51308 23.1008C9.26988 24.4841 11.1815 25.5881 13.2107 26.5121C14.8393 27.2535 16.3906 28.0728 17.341 29.6602C18.0859 30.8958 18.6039 32.7815 17.9364 34.1594ZM37.7285 27.9573C37.7285 27.9599 37.7259 27.9626 37.7259 27.9653C37.7178 28.0083 37.7152 28.0539 37.7072 28.0969C37.1305 31.4921 35.5686 34.9088 33.0081 37.5734C31.7266 38.9031 30.202 40.0473 28.4773 40.923C27.0542 41.6509 25.4976 42.1774 23.877 42.5185C24.8168 41.7852 25.6552 40.9015 26.312 39.9533C27.3799 38.4384 28.0527 36.824 28.4746 35.2768C28.6855 34.4979 28.8404 33.727 28.9445 32.9534C28.9739 32.7412 28.9899 32.5236 29.0112 32.3087C29.0646 29.5716 29.3183 26.7727 30.6853 24.3606C31.5957 22.7543 34.5059 19.257 36.6659 20.4416C39.0742 21.7604 38.3426 25.8782 37.7285 27.9573Z" fill="black"></path>
    </g>
    <defs>
      <clipPath id="clip0">
        <rect width="46" height="45" fill="white"></rect>
      </clipPath>
    </defs>
  </symbol>
  <symbol fill="none" xmlns="http://www.w3.org/2000/svg" viewBox="0 0 54 61" id="sentinel">
    <path d="M0 20.7906C0 20.7906 15 12.5 27 0C27 3.73432 27 9.44463 27 9.44463C27 9.44463 20.1767 17.3379 13.5663 20.7906C8.9237 20.7906 0 20.7906 0 20.7906Z" fill="black"></path>
    <path d="M53.5 20.7906C53.5 20.7906 39.5 14.5 27 0C27 3.73432 27 9.44463 27 9.44463C27 9.44463 33.8233 17.3379 40.4337 20.7906C45.0763 20.7906 53.5 20.7906 53.5 20.7906Z" fill="black"></path>
    <path d="M1.05414 24.8086C1.05414 24.8086 8.25895 26.0761 12.0582 34.4645C15.8575 42.8528 27 60.0243 27 60.0243V45.294C27 45.294 21.4438 35.5912 19.6144 31.9273C17.7851 28.2634 15.8876 25.7262 14.1285 24.8086C12.2991 24.8086 1.05414 24.8086 1.05414 24.8086Z" fill="black"></path>
    <path d="M52.9458 24.8086C52.9458 24.8086 45.741 26.0761 41.9418 34.4645C38.1425 42.8528 27 60.0243 27 60.0243V45.294C27 45.294 32.5562 35.5912 34.3856 31.9273C36.2149 28.2634 38.1124 25.7262 39.8715 24.8086C41.7008 24.8086 52.9458 24.8086 52.9458 24.8086Z" fill="black"></path>
    <path d="M27 31.0098C30.6908 31.0098 33.6828 28.0118 33.6828 24.3136C33.6828 20.6154 30.6908 17.6174 27 17.6174C23.3092 17.6174 20.3172 20.6154 20.3172 24.3136C20.3172 28.0118 23.3092 31.0098 27 31.0098Z" fill="black"></path>
  </symbol>
  <symbol fill="none" xmlns="http://www.w3.org/2000/svg" viewBox="0 0 36 44" id="spellweaver">
    <path d="M5.17528 0C1.81589 0 0 3.03448 0 6.57471V37.4713C0 37.5632 0 37.6552 0 37.7011C0 39.3563 0.635561 40.9195 1.72509 42.023C2.76923 43.1264 4.26734 43.954 5.94704 43.954H12.9836H36V37.4713V36.7816V0H5.17528ZM14.5725 14.2529L17.3417 7.72414L20.1564 14.2529L26.6028 17.0575L20.1564 19.8621L17.3871 26.3908L14.6179 19.8621L8.1715 17.0575L14.5725 14.2529ZM31.0517 37.7011C31.0517 39.0805 32.3682 39.0345 32.3682 40.1839H6.12863C4.76671 40.1839 3.67718 39.0805 3.67718 37.7011C3.67718 36.3218 4.76671 35.2184 6.12863 35.2184H32.3682C32.3682 36.4138 31.0517 36.3218 31.0517 37.7011ZM32.459 30.4828H24.9685L29.6898 27.6782L32.459 22.8966V30.4828ZM32.459 11.0805L29.8714 6.62069L25.4678 4H32.459V11.0805Z" fill="black"></path>
  </symbol>
  <symbol fill="none" xmlns="http://www.w3.org/2000/svg" viewBox="0 0 41 45" id="skirmisher">
    <g>
      <path d="M32.15 35.58C38.7 28.92 39.79 20.42 40.95 16.47C37.57 16.16 34.66 15.55 32.15 14.81L34.91 11.62L38.55 10.94L40.47 0L30.96 5.72L31.61 9.2L28.03 13.34C22.87 11.15 20.47 8.7 20.47 8.7C20.47 8.7 18.07 11.15 12.91 13.34L9.34 9.2L9.99 5.72L0.48 0L2.39 10.93L6.03 11.61L8.79 14.8C6.29 15.54 3.37 16.15 0 16.46C1.16 20.41 2.25 28.92 8.8 35.57L4.14 40.96C3.5 41.89 3.74 43.18 4.67 43.81C5.6 44.45 6.89 44.21 7.52 43.28L11.88 38.23C14.2 39.93 17.02 41.42 20.47 42.54C23.92 41.42 26.74 39.93 29.06 38.23L33.42 43.28C34.06 44.21 35.34 44.45 36.27 43.81C37.2 43.17 37.44 41.89 36.8 40.96L32.15 35.58ZM20.48 36.91V14.73L35.72 21.21C35.72 21.21 25.32 22.57 32.12 27.64C26.46 37.18 20.48 36.91 20.48 36.91Z" fill="black"></path>
    </g>
    <defs>
      <clipPath id="clip0">
        <rect width="40.95" height="44.18" fill="white"></rect>
      </clipPath>
    </defs>
  </symbol>
  <symbol fill="none" xmlns="http://www.w3.org/2000/svg" viewBox="0 0 47 46" id="victorious">
    <path d="M41.2321 9.12098C39.1886 9.38441 37.3759 9.35148 36.453 9.31855C36.7167 5.99285 36.5189 3.81962 36.5189 3.81962C36.5189 1.71225 30.5863 0.0329378 23.2363 0.0329378C15.9523 1.01253e-05 10.0196 1.71225 10.0196 3.7867C10.0196 3.88548 10.0526 3.98426 10.0526 4.08305C10.0196 4.80745 9.95372 6.71726 10.1515 9.31855C9.16269 9.35148 7.54769 9.35148 5.76788 9.12098C2.8345 8.75878 0.230715 9.51612 0 10.2735C1.35133 11.2613 3.42777 15.509 3.98808 16.7931C4.11992 17.2212 4.25175 17.6493 4.41655 18.1102C4.91094 19.5261 5.50421 20.9091 6.26227 22.2262C7.02034 23.5433 7.9432 24.8275 9.12973 25.9141C9.42637 26.1775 9.75596 26.441 10.0526 26.6715C10.3822 26.9019 10.7118 27.1324 11.0743 27.33C11.7665 27.7581 12.5245 28.0544 13.2826 28.2849C14.6339 28.68 16.0182 28.7788 17.3366 28.68C17.9958 29.5032 18.7209 30.2935 19.479 31.0508C20.6325 32.0716 21.6213 33.3228 20.8303 36.0888C20.0393 38.8547 17.831 38.262 16.1501 39.2828C14.5021 40.3035 13.9418 43.267 13.9418 43.267C13.9418 43.267 23.2363 49.3586 32.6627 43.267C32.6627 43.267 32.1024 40.3035 30.4544 39.2828C28.8064 38.262 26.5982 38.8547 25.7742 36.0888C24.9502 33.3228 25.7412 32.4009 27.1255 31.0508C27.9165 30.2935 28.6417 29.4703 29.3008 28.6471C30.751 28.8118 32.2342 28.713 33.7174 28.2849C34.4755 28.0544 35.2335 27.7251 35.9257 27.33C36.2882 27.1324 36.6178 26.9019 36.9474 26.6715C37.244 26.408 37.5736 26.1775 37.8703 25.9141C39.0568 24.8275 39.9797 23.5433 40.7377 22.2262C41.4958 20.9091 42.0891 19.4932 42.5834 18.1102C42.7482 17.6822 42.8801 17.2541 43.0119 16.7931C43.6052 15.509 45.6487 11.2613 47 10.2735C46.8022 9.51612 44.1985 8.75878 41.2321 9.12098ZM14.1396 25.8483C13.5792 25.6178 13.0849 25.3543 12.5905 24.9921C12.3597 24.8275 12.129 24.6299 11.8983 24.4324C11.7006 24.2019 11.4698 24.0372 11.2721 23.7738C9.69004 21.9628 8.73422 19.5261 8.14095 16.9907C7.97616 16.3651 7.84432 15.7065 7.74544 15.048L7.58064 14.1589L8.10799 14.1918L10.8436 14.3236C11.6017 18.0773 12.986 22.325 15.5238 26.2763C15.0624 26.1775 14.601 26.0458 14.1396 25.8483ZM23.2693 6.55262C18.9187 6.55262 15.359 5.79529 15.359 4.84038C15.359 3.88548 18.8857 3.12814 23.2693 3.12814C27.6529 3.12814 31.1795 3.88548 31.1795 4.84038C31.1795 5.79529 27.6529 6.55262 23.2693 6.55262ZM39.2546 15.048C39.1227 15.7065 38.9909 16.3651 38.859 16.9907C38.2658 19.5261 37.31 21.9628 35.7279 23.7738C35.5302 24.0043 35.3324 24.2019 35.1017 24.4324C34.871 24.6299 34.6732 24.8275 34.4095 24.9921C33.9481 25.3543 33.4208 25.6178 32.8604 25.8483C32.2672 26.0788 31.641 26.2434 31.0147 26.3422C33.5856 22.3909 35.0028 18.1102 35.7609 14.3565L38.892 14.1918L39.4193 14.1589L39.2546 15.048Z" fill="black"></path>
  </symbol>


  <use xlink:href="#abomination" id="use-abomination" />
  <use xlink:href="#assassin" id="use-assassin" />
  <use xlink:href="#brawler" id="use-brawler" />
  <use xlink:href="#cannoneer" id="use-cannoneer" />
  <use xlink:href="#caretaker" id="use-caretaker" />
  <use xlink:href="#cavalier" id="use-cavalier" />
  <use xlink:href="#cruel" id="use-cruel" />
  <use xlink:href="#dawnbringer" id="use-dawnbringer" />
  <use xlink:href="#draconic" id="use-draconic" />
  <use xlink:href="#forgotten" id="use-forgotten" />
  <use xlink:href="#hellion" id="use-hellion" />
  <use xlink:href="#inanimate" id="use-inanimate" />
  <use xlink:href="#invoker" id="use-invoker" />
  <use xlink:href="#ironclad" id="use-ironclad" />
  <use xlink:href="#knight" id="use-knight" />
  <use xlink:href="#legionnaire" id="use-legionnaire" />
  <use xlink:href="#nightbringer" id="use-nightbringer" />
  <use xlink:href="#mystic" id="use-mystic" />
  <use xlink:href="#ranger" id="use-ranger" />
  <use xlink:href="#renewer" id="use-renewer" />
  <use xlink:href="#redeemed" id="use-redeemed" />
  <use xlink:href="#revenant" id="use-revenant" />
  <use xlink:href="#sentinel" id="use-sentinel" />
  <use xlink:href="#skirmisher" id="use-skirmisher" />
  <use xlink:href="#spellweaver" id="use-spellweaver" />
  <use xlink:href="#victorious" id="use-victorious" />

</svg>